<?xml version="1.0" encoding="UTF-8"?> <svg xmlns="http://www.w3.org/2000/svg" xmlns:xlink="http://www.w3.org/1999/xlink" id="Layer_1" data-name="Layer 1" viewBox="0 0 51.67 47.37"><defs><style> .cls-1 { letter-spacing: .12em; } .cls-2 { letter-spacing: .02em; } .cls-3 { letter-spacing: .07em; } .cls-4, .cls-5 { fill: #072739; } .cls-6 { letter-spacing: .09em; } .cls-7 { letter-spacing: .09em; } .cls-8 { letter-spacing: .09em; } .cls-5 { font-family: Lato-Light, Lato; font-size: 6px; font-weight: 300; } .cls-9 { letter-spacing: .08em; } .cls-10 { letter-spacing: .11em; } .cls-11 { letter-spacing: .12em; } .cls-12 { fill: url(#linear-gradient); } </style><linearGradient id="linear-gradient" x1="17.17" y1="11.75" x2="33.05" y2="11.75" gradientUnits="userSpaceOnUse"><stop offset="0" stop-color="#f1f9fd"></stop><stop offset=".32" stop-color="#87898b"></stop><stop offset=".66" stop-color="#e7edf1"></stop><stop offset="1" stop-color="#231f20"></stop></linearGradient></defs><path class="cls-4" d="M31.76,12.43c-.1.22-.15.52-.28.74l-8.16,15.45.06.29,2.4,4.4,9.58-18.28c.18-.57.3-1.19-.07-1.72-.23-.32-.57-.22-.43-.78h5.44c-.02.17.05.45-.04.59-.04.06-1.17.4-1.47.57-.56.32-1.08.85-1.42,1.39l-12.26,23.47-.25-.06L12.61,15.03c-.49-.8-.99-1.28-1.87-1.62-.2-.08-.79-.17-.82-.2-.05-.05.02-.54,0-.68h4.9l7.53,14.27c.23.05.15-.03.22-.12.63-.99,1.08-2.14,1.63-3.18.27-.5.6-1.03.87-1.55,1.6-3.01,3.2-6.03,4.77-9.06.28-.28.62-.52.86-.84.42-.04.72.2,1.07.39Z"></path><path class="cls-12" d="M31.76,12.43c-.35-.18-.65-.43-1.07-.39,2.69-3.64.85-9.33-3.47-10.65-5.96-1.83-10.99,4.53-8,9.94,1.9,3.43,3.72,6.89,5.57,10.36.07.14.04.31.27.26-.28.52-.61,1.05-.87,1.55-1.71-3.42-3.6-6.76-5.29-10.19-1.45-2.93-2.42-5.08-1.09-8.38,3.31-8.23,15.85-5.64,15.23,3.87-.1,1.57-.65,2.32-1.27,3.64Z"></path><text class="cls-5" transform="translate(0 45.79)"><tspan class="cls-11" x="0" y="0">VE</tspan><tspan class="cls-9" x="8.86" y="0">L</tspan><tspan class="cls-1" x="12.37" y="0">ORI</tspan><tspan class="cls-8" x="24.5" y="0">A</tspan><tspan class="cls-6" x="28.96" y="0"> </tspan><tspan class="cls-3" x="31.11" y="0">V</tspan><tspan class="cls-10" x="35.47" y="0">A</tspan><tspan class="cls-11" x="40.03" y="0">U</tspan><tspan class="cls-2" x="45.12" y="0">L</tspan><tspan class="cls-7" x="48.29" y="0">T</tspan></text></svg> 